<mxfile host="Electron" modified="2024-05-08T09:34:46.563Z" agent="Mozilla/5.0 (X11; Linux x86_64) AppleWebKit/537.36 (KHTML, like Gecko) draw.io/22.0.3 Chrome/118.0.5993.159 Electron/27.3.11 Safari/537.36" etag="7fvPUj4Rpx5LPx_k_kuS" version="22.0.3" type="device">
  <diagram name="Page-1" id="p5L5addWENzMQipGxd7q">
    <mxGraphModel dx="1341" dy="826" grid="1" gridSize="10" guides="1" tooltips="1" connect="1" arrows="1" fold="1" page="1" pageScale="1" pageWidth="1169" pageHeight="827" math="0" shadow="0">
      <root>
        <mxCell id="0" />
        <mxCell id="1" parent="0" />
        <mxCell id="ZEP5A2YXMQnycwN7ijzz-1" value="Kernel Space" style="rounded=0;whiteSpace=wrap;html=1;" parent="1" vertex="1">
          <mxGeometry x="700" y="369" width="300" height="110" as="geometry" />
        </mxCell>
        <mxCell id="ZEP5A2YXMQnycwN7ijzz-2" value="User Space" style="rounded=0;whiteSpace=wrap;html=1;" parent="1" vertex="1">
          <mxGeometry x="700" y="220" width="300" height="149" as="geometry" />
        </mxCell>
        <mxCell id="ZEP5A2YXMQnycwN7ijzz-3" value="Kernel Space" style="rounded=0;whiteSpace=wrap;html=1;" parent="1" vertex="1">
          <mxGeometry x="270" y="369" width="300" height="110" as="geometry" />
        </mxCell>
        <mxCell id="ZEP5A2YXMQnycwN7ijzz-4" value="User Space" style="rounded=0;whiteSpace=wrap;html=1;" parent="1" vertex="1">
          <mxGeometry x="270" y="220" width="300" height="149" as="geometry" />
        </mxCell>
        <mxCell id="ZEP5A2YXMQnycwN7ijzz-5" value="UE" style="text;html=1;strokeColor=none;fillColor=none;align=center;verticalAlign=middle;whiteSpace=wrap;rounded=0;strokeWidth=4;fontSize=22;" parent="1" vertex="1">
          <mxGeometry x="390" y="180" width="60" height="30" as="geometry" />
        </mxCell>
        <mxCell id="ZEP5A2YXMQnycwN7ijzz-6" value="UPF" style="text;html=1;strokeColor=none;fillColor=none;align=center;verticalAlign=middle;whiteSpace=wrap;rounded=0;strokeWidth=4;fontSize=22;" parent="1" vertex="1">
          <mxGeometry x="820" y="180" width="60" height="30" as="geometry" />
        </mxCell>
        <mxCell id="ZEP5A2YXMQnycwN7ijzz-9" value="oaitun_ue1" style="text;html=1;strokeColor=none;fillColor=none;align=center;verticalAlign=middle;whiteSpace=wrap;rounded=0;" parent="1" vertex="1">
          <mxGeometry x="340" y="420" width="60" height="30" as="geometry" />
        </mxCell>
        <mxCell id="ZEP5A2YXMQnycwN7ijzz-10" value="iptables" style="text;html=1;strokeColor=none;fillColor=none;align=center;verticalAlign=middle;whiteSpace=wrap;rounded=0;" parent="1" vertex="1">
          <mxGeometry x="330" y="390" width="60" height="30" as="geometry" />
        </mxCell>
        <mxCell id="ZEP5A2YXMQnycwN7ijzz-11" value="iptables" style="text;html=1;strokeColor=none;fillColor=none;align=center;verticalAlign=middle;whiteSpace=wrap;rounded=0;" parent="1" vertex="1">
          <mxGeometry x="890" y="399" width="60" height="30" as="geometry" />
        </mxCell>
        <mxCell id="ZEP5A2YXMQnycwN7ijzz-12" value="gtp" style="text;html=1;strokeColor=none;fillColor=none;align=center;verticalAlign=middle;whiteSpace=wrap;rounded=0;" parent="1" vertex="1">
          <mxGeometry x="610" y="576" width="60" height="30" as="geometry" />
        </mxCell>
        <mxCell id="ZEP5A2YXMQnycwN7ijzz-15" value="Handling of User Plane IP Traffic" style="text;html=1;strokeColor=none;fillColor=none;align=center;verticalAlign=middle;whiteSpace=wrap;rounded=0;fontSize=15;" parent="1" vertex="1">
          <mxGeometry x="520" y="140" width="240" height="50" as="geometry" />
        </mxCell>
        <mxCell id="5xZ0luczVkGi4bFD5wlK-1" value="DS-TT" style="rounded=0;whiteSpace=wrap;html=1;" parent="1" vertex="1">
          <mxGeometry x="285" y="270" width="90" height="60" as="geometry" />
        </mxCell>
        <mxCell id="5xZ0luczVkGi4bFD5wlK-2" value="" style="endArrow=classic;html=1;rounded=0;entryX=0.75;entryY=1;entryDx=0;entryDy=0;dashed=1;fillColor=#d80073;strokeColor=#FF0000;" parent="1" edge="1" target="5xZ0luczVkGi4bFD5wlK-8">
          <mxGeometry width="50" height="50" relative="1" as="geometry">
            <mxPoint x="968" y="410" as="sourcePoint" />
            <mxPoint x="990" y="299.75" as="targetPoint" />
          </mxGeometry>
        </mxCell>
        <mxCell id="5xZ0luczVkGi4bFD5wlK-4" value="" style="endArrow=classic;html=1;rounded=0;dashed=1;" parent="1" edge="1">
          <mxGeometry width="50" height="50" relative="1" as="geometry">
            <mxPoint x="950" y="330" as="sourcePoint" />
            <mxPoint x="950" y="410" as="targetPoint" />
          </mxGeometry>
        </mxCell>
        <mxCell id="5xZ0luczVkGi4bFD5wlK-6" value="" style="endArrow=classic;html=1;rounded=0;entryX=0.5;entryY=1;entryDx=0;entryDy=0;dashed=1;" parent="1" target="5xZ0luczVkGi4bFD5wlK-1" edge="1">
          <mxGeometry width="50" height="50" relative="1" as="geometry">
            <mxPoint x="330" y="410" as="sourcePoint" />
            <mxPoint x="190" y="164.66" as="targetPoint" />
          </mxGeometry>
        </mxCell>
        <mxCell id="5xZ0luczVkGi4bFD5wlK-7" value="" style="endArrow=classic;html=1;rounded=0;dashed=1;exitX=0.175;exitY=0.998;exitDx=0;exitDy=0;fillColor=#d80073;strokeColor=#FF0000;exitPerimeter=0;" parent="1" edge="1" source="5xZ0luczVkGi4bFD5wlK-1">
          <mxGeometry width="50" height="50" relative="1" as="geometry">
            <mxPoint x="285" y="299.66" as="sourcePoint" />
            <mxPoint x="300" y="410" as="targetPoint" />
          </mxGeometry>
        </mxCell>
        <mxCell id="5xZ0luczVkGi4bFD5wlK-8" value="NW-TT" style="rounded=0;whiteSpace=wrap;html=1;" parent="1" vertex="1">
          <mxGeometry x="900" y="270" width="90" height="60" as="geometry" />
        </mxCell>
        <mxCell id="aCmNxEpFnEMQ6UYsc3XZ-1" value="PTP Correction Factor Timestamping happens in the TT units.&lt;br&gt;Jitter in between timestamping is corrected.&lt;br&gt;However, jitter before ingress timestamp and after egress timestamp&lt;br&gt;degrades PTP performance (red arrows).&lt;br&gt;In the best case timestamping is performed in the ingress/egress NIC&lt;br&gt;&amp;nbsp;instead of userspace." style="text;html=1;strokeColor=#6F0000;fillColor=#a20025;align=center;verticalAlign=middle;whiteSpace=wrap;rounded=0;fontColor=#ffffff;" vertex="1" parent="1">
          <mxGeometry x="407.5" y="640" width="465" height="110" as="geometry" />
        </mxCell>
        <mxCell id="aCmNxEpFnEMQ6UYsc3XZ-2" value="NIC" style="rounded=0;whiteSpace=wrap;html=1;" vertex="1" parent="1">
          <mxGeometry x="840" y="450" width="160" height="60" as="geometry" />
        </mxCell>
        <mxCell id="ZEP5A2YXMQnycwN7ijzz-8" value="upfgtp" style="text;html=1;strokeColor=none;fillColor=none;align=center;verticalAlign=middle;whiteSpace=wrap;rounded=0;" parent="1" vertex="1">
          <mxGeometry x="900" y="420" width="60" height="30" as="geometry" />
        </mxCell>
        <mxCell id="aCmNxEpFnEMQ6UYsc3XZ-3" value="NIC" style="rounded=0;whiteSpace=wrap;html=1;" vertex="1" parent="1">
          <mxGeometry x="270" y="450" width="160" height="60" as="geometry" />
        </mxCell>
        <mxCell id="ZEP5A2YXMQnycwN7ijzz-7" value="" style="endArrow=classicThin;html=1;rounded=0;endFill=1;" parent="1" edge="1">
          <mxGeometry width="50" height="50" relative="1" as="geometry">
            <mxPoint x="970" y="410" as="sourcePoint" />
            <mxPoint x="300" y="410" as="targetPoint" />
            <Array as="points">
              <mxPoint x="950" y="410" />
              <mxPoint x="950" y="536" />
              <mxPoint x="950" y="606" />
              <mxPoint x="330" y="606" />
              <mxPoint x="330" y="526" />
              <mxPoint x="330" y="410" />
            </Array>
          </mxGeometry>
        </mxCell>
        <mxCell id="aCmNxEpFnEMQ6UYsc3XZ-4" value="" style="endArrow=classic;html=1;rounded=0;strokeColor=#FF0000;" edge="1" parent="1">
          <mxGeometry width="50" height="50" relative="1" as="geometry">
            <mxPoint x="300" y="410" as="sourcePoint" />
            <mxPoint x="190" y="540" as="targetPoint" />
            <Array as="points">
              <mxPoint x="300" y="540" />
            </Array>
          </mxGeometry>
        </mxCell>
        <mxCell id="aCmNxEpFnEMQ6UYsc3XZ-5" value="" style="endArrow=classic;html=1;rounded=0;strokeColor=#FF0000;" edge="1" parent="1">
          <mxGeometry width="50" height="50" relative="1" as="geometry">
            <mxPoint x="1080" y="540" as="sourcePoint" />
            <mxPoint x="970" y="410" as="targetPoint" />
            <Array as="points">
              <mxPoint x="970" y="540" />
            </Array>
          </mxGeometry>
        </mxCell>
      </root>
    </mxGraphModel>
  </diagram>
</mxfile>
